# Blender 4.5.3 LTS
# www.blender.org
mtllib Sword.mtl
o Cube.008
v -0.910321 -0.229684 1.030000
v -0.892411 -0.192806 0.015832
v -0.994622 -0.188744 1.030000
v -0.976713 -0.151866 0.015832
v -1.012983 -0.226551 1.028301
v -0.995073 -0.189673 0.014133
v -0.928681 -0.267491 1.028301
v -0.910772 -0.230613 0.014133
v -0.994622 -0.188744 1.030000
v -0.910321 -0.229684 1.030000
v -1.012983 -0.226551 1.028301
v -0.928681 -0.267491 1.028301
v -0.930780 -0.164548 1.032007
v -0.912870 -0.127670 0.017839
v -0.952923 -0.210143 0.014133
v -0.970832 -0.247021 1.028301
v -0.930780 -0.164548 1.032007
v -0.970832 -0.247021 1.028301
v -0.947042 -0.305298 1.026602
v -0.929133 -0.268421 0.012434
v -1.031344 -0.264358 1.026602
v -1.013434 -0.227480 0.012434
v -1.031344 -0.264358 1.026602
v -0.947042 -0.305298 1.026602
v -1.010885 -0.329494 1.024595
v -0.992975 -0.292616 0.010427
v -1.010885 -0.329494 1.024595
v -0.951984 -0.208210 1.127272
v -0.941480 -0.241650 1.126242
v -0.994186 -0.240042 1.125370
v -0.984760 -0.220632 1.126242
v -0.950906 -0.261060 1.125370
v -0.993109 -0.292892 1.123467
v -0.960333 -0.280470 1.124497
v -1.003612 -0.259451 1.124497
vn -0.3550 0.9344 0.0277
vn 0.8995 -0.4369 -0.0000
vn 0.0176 0.0363 -0.9992
vn -0.8995 0.4369 -0.0000
vn 0.9539 0.2988 0.0277
vn -0.9539 -0.2988 -0.0277
vn 0.3550 -0.9344 -0.0277
vn -0.8798 0.4170 0.2283
vn -0.0176 -0.0363 0.9992
vn -0.9151 -0.2959 0.2740
vn 0.3333 -0.9021 0.2740
vn 0.8717 -0.4336 0.2283
vn 0.9045 0.2740 0.3269
vn -0.3439 0.8803 0.3269
vt 0.375000 0.125000
vt 0.625000 0.125000
vt 0.625000 0.250000
vt 0.375000 0.250000
vt 0.375000 0.875000
vt 0.625000 0.875000
vt 0.625000 1.000000
vt 0.375000 1.000000
vt 0.750000 0.625000
vt 0.875000 0.625000
vt 0.875000 0.750000
vt 0.750000 0.750000
vt 0.375000 0.375000
vt 0.625000 0.375000
vt 0.000000 0.000000
vt 0.375000 0.000000
vt 0.750000 0.500000
vt 0.875000 0.500000
vt 0.625000 0.000000
s 0
f 13/1/1 14/2/1 4/3/1 3/4/1
f 7/5/2 8/6/2 2/7/2 1/8/2
f 15/9/3 14/10/3 2/11/3 8/12/3
f 3/4/3 5/13/3 11/13/3 9/4/3
f 3/4/4 4/3/4 6/14/4 5/13/4
f 13/1/3 3/4/3 9/4/3 17/1/3
f 16/15/3 7/15/3 12/15/3 18/15/3
f 7/5/3 1/8/3 10/8/3 12/5/3
f 5/15/3 16/15/3 18/15/3 11/15/3
f 1/16/3 13/1/3 17/1/3 10/16/3
f 6/17/3 4/18/3 14/10/3 15/9/3
f 1/16/5 2/19/5 14/2/5 13/1/5
f 25/1/6 21/4/6 22/3/6 26/2/6
f 7/5/2 19/8/2 20/7/2 8/6/2
f 15/9/3 8/12/3 20/11/3 26/10/3
f 21/4/3 23/4/3 11/13/3 5/13/3
f 21/4/4 5/13/4 6/14/4 22/3/4
f 25/1/3 27/1/3 23/4/3 21/4/3
f 7/5/3 12/5/3 24/8/3 19/8/3
f 19/16/3 24/16/3 27/1/3 25/1/3
f 6/17/3 15/9/3 26/10/3 22/18/3
f 19/16/7 25/1/7 26/2/7 20/19/7
f 3/15/3 13/15/3 1/15/3 7/15/3 5/15/3
f 5/13/8 21/4/8 35/4/8 30/13/8
f 29/16/9 28/1/9 31/4/9 30/13/9 35/4/9 33/1/9 34/16/9 32/5/9
f 21/4/10 25/1/10 33/1/10 35/4/10
f 25/1/11 19/16/11 34/16/11 33/1/11
f 19/8/12 7/5/12 32/5/12 34/8/12
f 3/4/8 5/13/8 30/13/8 31/4/8
f 1/16/13 13/1/13 28/1/13 29/16/13
f 13/1/14 3/4/14 31/4/14 28/1/14
f 7/5/12 1/8/12 29/8/12 32/5/12
o Cube.009
v -0.964607 -0.028122 0.036658
v -0.963051 -0.024919 -0.051436
v -0.802643 -0.106779 0.036658
v -0.801087 -0.103575 -0.051436
v -0.872225 -0.250057 0.030220
v -0.870669 -0.246854 -0.057874
v -1.034189 -0.171400 0.030220
v -1.032633 -0.168197 -0.057874
v -0.801087 -0.103575 -0.051436
v -0.802643 -0.106779 0.036658
v -0.964607 -0.028122 0.036658
v -0.963051 -0.024919 -0.051436
v -0.779261 -0.058634 -0.013665
v -0.780187 -0.060539 0.038736
v -0.942151 0.018117 0.038736
v -0.941226 0.020023 -0.013665
v -1.103771 -0.314678 0.023781
v -1.102215 -0.311475 -0.064313
v -0.941807 -0.393335 0.023781
v -0.940251 -0.390132 -0.064313
v -0.940251 -0.390132 -0.064313
v -0.941807 -0.393335 0.023781
v -1.103771 -0.314678 0.023781
v -1.102215 -0.311475 -0.064313
v -0.963337 -0.437669 -0.030699
v -0.964262 -0.439574 0.021703
v -1.126227 -0.360918 0.021703
v -1.125301 -0.359012 -0.030699
vn 0.8995 -0.4369 -0.0000
vn 0.0176 0.0363 -0.9992
vn -0.0176 -0.0363 0.9992
vn -0.8995 0.4369 -0.0000
vn 0.4365 0.8988 0.0404
vn 0.2634 0.5425 -0.7977
vn -0.4365 -0.8988 -0.0404
vn -0.2345 -0.4828 -0.8438
vt 0.375000 0.375000
vt 0.625000 0.375000
vt 0.625000 0.500000
vt 0.375000 0.500000
vt 0.625000 0.750000
vt 0.250000 0.500000
vt 0.375000 0.750000
vt 0.250000 0.750000
vt 0.750000 0.500000
vt 0.750000 0.750000
vt 0.625000 0.875000
vt 0.375000 0.875000
s 0
f 40/20/15 41/21/15 39/22/15 38/23/15
f 39/22/16 37/24/16 47/24/16 44/22/16
f 40/25/17 38/23/17 36/26/17 42/27/17
f 39/22/16 41/28/16 43/29/16 37/24/16
f 36/26/18 37/24/18 43/30/18 42/31/18
f 47/24/18 46/26/18 50/26/18 51/24/18
f 38/23/16 39/22/16 44/22/16 45/23/16
f 37/24/16 36/26/16 46/26/16 47/24/16
f 36/26/16 38/23/16 45/23/16 46/26/16
f 49/23/19 48/22/19 51/24/19 50/26/19
f 46/26/17 45/23/17 49/23/17 50/26/17
f 44/22/20 47/24/20 51/24/20 48/22/20
f 45/23/15 44/22/15 48/22/15 49/23/15
f 40/20/15 54/23/15 55/22/15 41/21/15
f 55/22/16 56/22/16 59/24/16 53/24/16
f 40/25/17 42/27/17 52/26/17 54/23/17
f 55/22/16 53/24/16 43/29/16 41/28/16
f 52/26/18 42/31/18 43/30/18 53/24/18
f 59/24/18 63/24/18 62/26/18 58/26/18
f 54/23/16 57/23/16 56/22/16 55/22/16
f 53/24/16 59/24/16 58/26/16 52/26/16
f 52/26/16 58/26/16 57/23/16 54/23/16
f 61/23/21 62/26/21 63/24/21 60/22/21
f 58/26/17 62/26/17 61/23/17 57/23/17
f 56/22/22 60/22/22 63/24/22 59/24/22
f 57/23/15 61/23/15 60/22/15 56/22/15
o Cylinder
v -0.923063 -0.227360 0.074545
v -0.913762 -0.208209 -0.452110
v -0.916544 -0.190886 0.075986
v -0.907244 -0.171735 -0.450668
v -0.931961 -0.166980 0.076583
v -0.922660 -0.147829 -0.450071
v -0.960281 -0.169645 0.075986
v -0.950981 -0.150495 -0.450668
v -0.984917 -0.197321 0.074545
v -0.975616 -0.178170 -0.452110
v -0.991435 -0.233795 0.073103
v -0.982135 -0.214644 -0.453551
v -0.976019 -0.257701 0.072506
v -0.966718 -0.238551 -0.454148
v -0.947698 -0.255036 0.073103
v -0.938398 -0.235885 -0.453551
vn 0.9843 -0.1763 0.0110
vn 0.8403 0.5410 0.0345
vn -0.0944 0.9949 0.0345
vn -0.7472 0.6645 0.0110
vn -0.9843 0.1763 -0.0110
vn -0.8403 -0.5410 -0.0345
vn 0.0176 0.0363 -0.9992
vn 0.0944 -0.9949 -0.0345
vn 0.7472 -0.6645 -0.0110
vn -0.0176 -0.0363 0.9992
vt 1.000000 0.500000
vt 1.000000 1.000000
vt 0.875000 1.000000
vt 0.875000 0.500000
vt 0.750000 1.000000
vt 0.750000 0.500000
vt 0.625000 1.000000
vt 0.625000 0.500000
vt 0.500000 1.000000
vt 0.500000 0.500000
vt 0.375000 1.000000
vt 0.375000 0.500000
vt 0.250000 1.000000
vt 0.250000 0.500000
vt 0.419706 0.419706
vt 0.250000 0.490000
vt 0.080294 0.419706
vt 0.010000 0.250000
vt 0.080294 0.080294
vt 0.250000 0.010000
vt 0.419706 0.080294
vt 0.490000 0.250000
vt 0.125000 1.000000
vt 0.125000 0.500000
vt 0.000000 1.000000
vt 0.000000 0.500000
vt 0.750000 0.490000
vt 0.919706 0.419706
vt 0.990000 0.250000
vt 0.919706 0.080294
vt 0.750000 0.010000
vt 0.580294 0.080294
vt 0.510000 0.250000
vt 0.580294 0.419706
s 0
f 64/32/23 65/33/23 67/34/23 66/35/23
f 66/35/24 67/34/24 69/36/24 68/37/24
f 68/37/25 69/36/25 71/38/25 70/39/25
f 70/39/26 71/38/26 73/40/26 72/41/26
f 72/41/27 73/40/27 75/42/27 74/43/27
f 74/43/28 75/42/28 77/44/28 76/45/28
f 67/46/29 65/47/29 79/48/29 77/49/29 75/50/29 73/51/29 71/52/29 69/53/29
f 76/45/30 77/44/30 79/54/30 78/55/30
f 78/55/31 79/54/31 65/56/31 64/57/31
f 64/58/32 66/59/32 68/60/32 70/61/32 72/62/32 74/63/32 76/64/32 78/65/32
o Cube.010
v -1.026855 -0.232141 -0.450031
v -1.025120 -0.228571 -0.548226
v -0.924498 -0.281850 -0.450031
v -0.922764 -0.278280 -0.548226
v -0.965055 -0.104889 -0.444313
v -0.963321 -0.101318 -0.542507
v -0.862698 -0.154598 -0.444313
v -0.860964 -0.151027 -0.542507
v -0.927634 -0.269957 -0.433838
v -1.015568 -0.227253 -0.433838
v -1.013277 -0.222534 -0.563614
v -0.925342 -0.265238 -0.563614
v -0.874542 -0.160635 -0.428925
v -0.872251 -0.155916 -0.558701
v -0.962477 -0.117930 -0.428925
v -0.960185 -0.113211 -0.558701
vn -0.4365 -0.8988 -0.0404
vn 0.8995 -0.4369 -0.0000
vn 0.4365 0.8988 0.0404
vn -0.8995 0.4369 -0.0000
vn 0.8102 -0.3732 -0.4520
vn 0.3597 0.7407 0.5675
vn -0.0176 -0.0363 0.9992
vn 0.0176 0.0363 -0.9992
vn -0.8102 0.3732 0.4520
vn 0.3785 0.7795 -0.4992
vn 0.7942 -0.4060 0.4520
vn -0.3597 -0.7407 -0.5675
vn -0.7942 0.4060 -0.4520
vn -0.3785 -0.7795 0.4992
vt 0.375000 0.000000
vt 0.625000 0.000000
vt 0.625000 0.250000
vt 0.375000 0.250000
vt 0.625000 0.500000
vt 0.375000 0.500000
vt 0.625000 0.750000
vt 0.375000 0.750000
vt 0.625000 1.000000
vt 0.375000 1.000000
vt 0.125000 0.500000
vt 0.125000 0.750000
vt 0.875000 0.500000
vt 0.875000 0.750000
s 0
f 80/66/33 81/67/33 83/68/33 82/69/33
f 82/69/34 83/68/34 87/70/34 86/71/34
f 86/71/35 87/70/35 85/72/35 84/73/35
f 84/73/36 85/72/36 81/74/36 80/75/36
f 87/70/37 83/68/37 91/68/37 93/70/37
f 86/71/38 84/73/38 94/73/38 92/71/38
f 88/76/39 92/71/39 94/73/39 89/77/39
f 93/70/40 91/78/40 90/79/40 95/72/40
f 84/73/41 80/75/41 89/75/41 94/73/41
f 85/72/42 87/70/42 93/70/42 95/72/42
f 82/69/43 86/71/43 92/71/43 88/69/43
f 83/68/44 81/67/44 90/67/44 91/68/44
f 81/74/45 85/72/45 95/72/45 90/74/45
f 80/66/46 82/69/46 88/69/46 89/66/46
